<svg width="20" height="20" viewBox="0 0 20 20" fill="none" xmlns="http://www.w3.org/2000/svg">
<path fill-rule="evenodd" clip-rule="evenodd" d="M3 3C2.44772 3 2 3.44772 2 4V16C2 16.5523 2.44772 17 3 17H17C17.5523 17 18 16.5523 18 16V4C18 3.44772 17.5523 3 17 3H3ZM15 15C15.5523 15 16 14.5523 16 14C16 13.4477 15.5523 13 15 13C14.4477 13 14 13.4477 14 14C14 14.5523 14.4477 15 15 15ZM12 14C12 14.5523 11.5523 15 11 15C10.4477 15 10 14.5523 10 14C10 13.4477 10.4477 13 11 13C11.5523 13 12 13.4477 12 14ZM5 5C4.44772 5 4 5.44772 4 6C4 6.55228 4.44772 7 5 7H15C15.5523 7 16 6.55228 16 6C16 5.44772 15.5523 5 15 5H5ZM8 10C8 9.44772 8.44772 9 9 9H15C15.5523 9 16 9.44772 16 10C16 10.5523 15.5523 11 15 11H9C8.44772 11 8 10.5523 8 10ZM8 14C8 13.2368 7.84551 12.6327 7.53299 12.1379C7.24581 11.6832 6.86796 11.4005 6.62915 11.2218L6.6 11.2C6.33627 11.0022 6.23383 10.9142 6.15799 10.7941C6.09551 10.6952 6 10.4868 6 10C6 9.44772 5.55228 9 5 9C4.44772 9 4 9.44772 4 10C4 10.7632 4.15449 11.3673 4.46701 11.8621C4.75419 12.3168 5.13204 12.5995 5.37085 12.7782L5.4 12.8C5.66373 12.9978 5.76617 13.0858 5.84201 13.2059C5.90449 13.3048 6 13.5132 6 14C6 14.5523 6.44771 15 7 15C7.55228 15 8 14.5523 8 14Z" fill="black"/>
</svg>
