<svg width="20" height="20" viewBox="0 0 20 20" fill="none" xmlns="http://www.w3.org/2000/svg">
<path d="M6 16L4 16C2.89543 16 2 15.1046 2 14L2 6C2 4.89543 2.89543 4 4 4L6 4" stroke="black" stroke-width="1.5"/>
<path d="M14 4L16 4C17.1046 4 18 4.89543 18 6L18 14C18 15.1046 17.1046 16 16 16H14" stroke="black" stroke-width="1.5"/>
<path d="M10 3V17" stroke="black"/>
<path d="M11 2L10 3L9 2H11Z" stroke="black" stroke-width="1.5" stroke-linejoin="round"/>
<path d="M9 18L10 17L11 18L9 18Z" stroke="black" stroke-width="1.5" stroke-linejoin="round"/>
<rect x="7" y="3.25" width="1.5" height="1.5" fill="black"/>
<rect x="7" y="6" width="1.5" height="1.5" fill="black"/>
<rect x="4" y="6" width="1.5" height="1.5" fill="black"/>
<rect x="7" y="12.5" width="1.5" height="1.5" fill="black"/>
<rect x="4" y="12.5" width="1.5" height="1.5" fill="black"/>
<rect x="7" y="15.25" width="1.5" height="1.5" fill="black"/>
<rect x="11.5" y="3.25" width="1.5" height="1.5" fill="black"/>
<rect x="11.5" y="6" width="1.5" height="1.5" fill="black"/>
<rect x="14.5" y="6" width="1.5" height="1.5" fill="black"/>
<rect x="11.5" y="12.5" width="1.5" height="1.5" fill="black"/>
<rect x="14.5" y="12.5" width="1.5" height="1.5" fill="black"/>
<rect x="11.5" y="15.25" width="1.5" height="1.5" fill="black"/>
</svg>
