<svg width="20" height="20" viewBox="0 0 20 20" fill="none" xmlns="http://www.w3.org/2000/svg">
<path fill-rule="evenodd" clip-rule="evenodd" d="M6.77621 8.9194L5.15458 10.541C3.96464 11.731 3.96464 13.6602 5.15458 14.8502C6.34452 16.0401 8.2738 16.0401 9.46374 14.8502L11.0854 13.2286L10.0247 12.1679L8.40308 13.7895C7.79893 14.3937 6.8194 14.3937 6.21524 13.7895C5.61108 13.1854 5.61109 12.2058 6.21524 11.6017L7.83687 9.98006L6.77621 8.9194Z" fill="black"/>
<path fill-rule="evenodd" clip-rule="evenodd" d="M13.2343 11.0797L14.8502 9.46374C16.0401 8.2738 16.0401 6.34452 14.8502 5.15458C13.6602 3.96464 11.731 3.96463 10.541 5.15458L8.38644 7.30916C8.38421 7.31138 8.38199 7.31361 8.37978 7.31584L8.92511 6.77051L9.98576 7.83116L11.6017 6.21524C12.2058 5.61108 13.1854 5.61108 13.7895 6.21524C14.3937 6.81939 14.3937 7.79892 13.7895 8.40308L12.1736 10.019L13.2343 11.0797ZM8.38 11.6119C8.38214 11.614 8.38429 11.6162 8.38644 11.6183C8.38859 11.6205 8.39074 11.6226 8.3929 11.6248L8.38 11.6119Z" fill="black"/>
<path d="M14.5729 14.5729L5.43183 5.43183" stroke="black" stroke-width="1.5"/>
</svg>
