<svg width="20" height="20" viewBox="0 0 20 20" fill="none" xmlns="http://www.w3.org/2000/svg">
<path fill-rule="evenodd" clip-rule="evenodd" d="M15.25 3C14.7668 3 14.375 3.39175 14.375 3.875V4.75C14.375 5.23325 14.7668 5.625 15.25 5.625H16.125C16.6082 5.625 17 5.23325 17 4.75V3.875C17 3.39175 16.6082 3 16.125 3H15.25Z" fill="black"/>
<path fill-rule="evenodd" clip-rule="evenodd" d="M8.00013 14.3485C6.95945 15.5081 5.64605 16.3437 3.875 16.3437V15.0312C5.16645 15.0312 6.14993 14.445 7.02331 13.4718C7.91787 12.475 8.64686 11.1288 9.42219 9.68887L9.44442 9.6476C10.1938 8.25573 10.9904 6.77642 11.9999 5.65153C13.0406 4.49191 14.3539 3.65625 16.125 3.65625V4.96875C14.8336 4.96875 13.8501 5.55496 12.9767 6.52816C12.0821 7.52495 11.3531 8.87122 10.5778 10.3111L10.5556 10.3524C9.80617 11.7443 9.00965 13.2236 8.00013 14.3485Z" fill="black"/>
<path fill-rule="evenodd" clip-rule="evenodd" d="M3.875 14.375C3.39175 14.375 3 14.7668 3 15.25V16.125C3 16.6082 3.39175 17 3.875 17H4.75C5.23325 17 5.625 16.6082 5.625 16.125V15.25C5.625 14.7668 5.23325 14.375 4.75 14.375H3.875Z" fill="black"/>
<path fill-rule="evenodd" clip-rule="evenodd" d="M9.20006 15.6875L10.4375 16.9249L11.6749 15.6875L10.4375 14.4501L9.20006 15.6875Z" fill="black"/>
<path fill-rule="evenodd" clip-rule="evenodd" d="M8.32506 4.3125L9.5625 5.54994L10.7999 4.3125L9.5625 3.07506L8.32506 4.3125Z" fill="black"/>
<path fill-rule="evenodd" clip-rule="evenodd" d="M10 16.125H4.3125V15.25H10V16.125Z" fill="black"/>
<path fill-rule="evenodd" clip-rule="evenodd" d="M10 3.875L15.6875 3.875V4.75L10 4.75V3.875Z" fill="black"/>
</svg>
