<svg width="20" height="20" viewBox="0 0 20 20" fill="none" xmlns="http://www.w3.org/2000/svg">
<path fill-rule="evenodd" clip-rule="evenodd" d="M7.30917 8.38643C7.30917 8.38644 7.30916 8.38644 7.30916 8.38644L5.15458 10.541C3.96464 11.731 3.96464 13.6602 5.15458 14.8502C6.34452 16.0401 8.2738 16.0401 9.46374 14.8502L11.6183 12.6956C11.6198 12.6941 11.6212 12.6927 11.6227 12.6912L11.6183 12.6956L10.5577 11.6349C10.5577 11.6349 10.5577 11.6349 10.5577 11.6349L8.40308 13.7895C7.79893 14.3937 6.8194 14.3937 6.21524 13.7895C5.61108 13.1854 5.61109 12.2058 6.21524 11.6017L8.36982 9.4471C8.36982 9.4471 8.36983 9.4471 8.36983 9.44709L7.30917 8.38643Z" fill="black"/>
<path fill-rule="evenodd" clip-rule="evenodd" d="M12.6956 11.6183C12.6956 11.6183 12.6956 11.6183 12.6956 11.6183L14.8502 9.46374C16.0401 8.2738 16.0401 6.34452 14.8502 5.15458C13.6602 3.96464 11.731 3.96463 10.541 5.15458L8.38644 7.30916C8.38497 7.31062 8.38351 7.31209 8.38205 7.31356L8.38644 7.30917L9.44709 8.36983C9.44709 8.36982 9.4471 8.36982 9.4471 8.36982L11.6017 6.21524C12.2058 5.61108 13.1854 5.61108 13.7895 6.21524C14.3937 6.81939 14.3937 7.79892 13.7895 8.40308L11.6349 10.5577C11.6349 10.5577 11.6349 10.5577 11.6349 10.5577L12.6956 11.6183Z" fill="black"/>
<path d="M7.84779 12.157L12.157 7.84781" stroke="black" stroke-width="1.5"/>
</svg>
