<svg width="20" height="20" viewBox="0 0 20 20" fill="none" xmlns="http://www.w3.org/2000/svg">
<path fill-rule="evenodd" clip-rule="evenodd" d="M2.5 3.5C1.94772 3.5 1.5 3.94772 1.5 4.5V7.91852C1.90696 7.07001 2.77269 6.5 3.75436 6.5H17.5V6C17.5 5.44772 17.0523 5 16.5 5H7.83333C7.61696 5 7.40643 4.92982 7.23333 4.8L5.5 3.5H2.5Z" fill="black"/>
<path d="M2.80764 8.82081C2.89422 8.34546 3.30828 8 3.79145 8H17.3014C17.9254 8 18.397 8.56526 18.2852 9.17919L17.3419 14.3584C17.1687 15.3091 16.3406 16 15.3742 16H2.6986C2.07456 16 1.60296 15.4347 1.71478 14.8208L2.80764 8.82081Z" fill="black"/>
</svg>
